<svg className="fill-blue-500" width="32" height="32" viewBox="0 0 32 32" fill="none" xmlns="http://www.w3.org/2000/svg">
<path opacity="0.4" d="M3.94666 30.2131L5.21332 9.37305H27.4534L28.72 30.2131H3.94666Z" fill="black"/>
<path d="M13.533 6.54622C14.373 5.70622 15.5463 5.21289 16.733 5.21289H16.7596C19.133 5.21289 21.053 7.05289 21.253 9.37289H23.253C23.053 5.94622 20.2263 3.21289 16.7596 3.21289H16.733C15.013 3.21289 13.333 3.90622 12.1196 5.11956C10.9863 6.25289 10.333 7.78622 10.2396 9.37289H12.2396C12.333 8.31956 12.773 7.29289 13.533 6.54622Z" fill="black"/>
<path d="M12.0264 16.5332H14.0797V14.5332H12.0264V16.5332Z" fill="black"/>
<path d="M19.5063 16.5332H21.5597V14.5332H19.5063V16.5332Z" fill="black"/>
</svg>
