<svg width="18" height="18" viewBox="0 0 18 18" fill="none" xmlns="http://www.w3.org/2000/svg">
<path fill-rule="evenodd" clip-rule="evenodd" d="M6.83275 1.08023C6.6912 1.20831 6.54245 1.3282 6.38723 1.43933C6.11903 1.61933 5.81752 1.74353 5.50071 1.80653C5.36301 1.83353 5.21901 1.84523 4.9319 1.86773C4.21098 1.92533 3.85007 1.95413 3.54946 2.06033C3.20574 2.18168 2.89356 2.37845 2.63581 2.63619C2.37806 2.89394 2.18128 3.20612 2.05993 3.54983C1.95372 3.85043 1.92492 4.21133 1.86732 4.93223C1.8575 5.12282 1.83707 5.31271 1.80612 5.50103C1.74312 5.81783 1.61892 6.11933 1.43891 6.38753C1.36061 6.50453 1.26701 6.61433 1.0798 6.83303C0.61089 7.38383 0.375984 7.65923 0.238281 7.94723C-0.079427 8.61323 -0.079427 9.38723 0.238281 10.0532C0.375984 10.3412 0.61089 10.6166 1.0798 11.1674C1.26701 11.3861 1.36061 11.4959 1.43891 11.6129C1.61892 11.8811 1.74312 12.1826 1.80612 12.4994C1.83312 12.6371 1.84482 12.7811 1.86732 13.0682C1.92492 13.7891 1.95372 14.15 2.05993 14.4506C2.18128 14.7943 2.37806 15.1065 2.63581 15.3643C2.89356 15.622 3.20574 15.8188 3.54946 15.9401C3.85007 16.0463 4.21098 16.0751 4.9319 16.1327C5.21901 16.1552 5.36301 16.1669 5.50071 16.1939C5.81752 16.2569 6.11903 16.382 6.38723 16.5611C6.50424 16.6394 6.61404 16.733 6.83275 16.9202C7.38356 17.3891 7.65897 17.624 7.94697 17.7617C8.61299 18.0794 9.38701 18.0794 10.053 17.7617C10.341 17.624 10.6164 17.3891 11.1673 16.9202C11.386 16.733 11.4958 16.6394 11.6128 16.5611C11.881 16.3811 12.1825 16.2569 12.4993 16.1939C12.637 16.1669 12.781 16.1552 13.0681 16.1327C13.789 16.0751 14.1499 16.0463 14.4505 15.9401C14.7943 15.8188 15.1064 15.622 15.3642 15.3643C15.6219 15.1065 15.8187 14.7943 15.9401 14.4506C16.0463 14.15 16.0751 13.7891 16.1327 13.0682C16.1552 12.7811 16.1669 12.6371 16.1939 12.4994C16.2569 12.1826 16.382 11.8811 16.5611 11.6129C16.6394 11.4959 16.733 11.3861 16.9202 11.1674C17.3891 10.6166 17.624 10.3412 17.7617 10.0532C18.0794 9.38723 18.0794 8.61323 17.7617 7.94723C17.624 7.65923 17.3891 7.38383 16.9202 6.83303C16.7921 6.69148 16.6722 6.54274 16.5611 6.38753C16.3813 6.11922 16.2564 5.81791 16.1939 5.50103C16.163 5.31271 16.1425 5.12281 16.1327 4.93223C16.0751 4.21133 16.0463 3.85043 15.9401 3.54983C15.8187 3.20612 15.6219 2.89394 15.3642 2.63619C15.1064 2.37845 14.7943 2.18168 14.4505 2.06033C14.1499 1.95413 13.789 1.92533 13.0681 1.86773C12.8775 1.85791 12.6876 1.83748 12.4993 1.80653C12.1824 1.74397 11.8811 1.61916 11.6128 1.43933C11.4577 1.32796 11.309 1.20808 11.1673 1.08023C10.6164 0.611327 10.341 0.376427 10.053 0.238727C9.72423 0.0815698 9.36443 0 9 0C8.63557 0 8.27577 0.0815698 7.94697 0.238727C7.65897 0.376427 7.38356 0.611327 6.83275 1.08023ZM12.9358 7.07693C13.063 6.9377 13.1316 6.75479 13.1274 6.56626C13.1231 6.37773 13.0463 6.1981 12.913 6.06475C12.7796 5.9314 12.6 5.85461 12.4115 5.85036C12.2229 5.84611 12.04 5.91473 11.9008 6.04193L7.53566 10.4069L6.09923 8.97143C5.96 8.84422 5.77709 8.77561 5.58855 8.77986C5.40001 8.78411 5.22037 8.8609 5.08702 8.99425C4.95367 9.1276 4.87688 9.30723 4.87263 9.49576C4.86838 9.68429 4.937 9.8672 5.0642 10.0064L7.01725 11.9594C7.1546 12.0965 7.34072 12.1735 7.53476 12.1735C7.72881 12.1735 7.91493 12.0965 8.05228 11.9594L12.9358 7.07693Z" fill="#22C55E"/>
</svg>
